# xmcd CD database file
# Copyright (C) 1997 Ti Kan
# 
# Track frame offsets:
#     150
#     17352
#     30663
#     49215
#     66474
#     85157
#     105129
#     124072
#     130467
#     150791
#     168728
#     184903
#     199550
#     214079
#     231433
#     250330
#     269845
#     297094
# 
# Disc length: 4194 seconds
# 
# Revision: 1
# Processed by: cddbd v1.4b41PL1 Copyright (c) Steve Scherf et al.
# Submitted via: DiscPlay 4.0.4
# 
DISCID=01106012
DTITLE=Marilyn Manson - Obsessional Neurosis
DYEAR=1900
DGENRE=
TTITLE0=Cake and Sodomy
TTITLE1=Cyclops
TTITLE2=Snakeeyes And Sissies
TTITLE3=Dope Hat<e>
TTITLE4=Organ Grinder
TTITLE5=Sweet Dream<s>
TTITLE6=Dogma
TTITLE7=Come Together
TTITLE8=Lunchbox
TTITLE9=Snake eyes And Sissies
TTITLE10=Get Your Gunn
TTITLE11=Dogma
TTITLE12=Cyclops
TTITLE13=Cake and Sodomy
TTITLE14=Sweet Tooth
TTITLE15=Dope Hat
TTITLE16=Strawberry Fields/My Monkey/Beautifull People
TTITLE17=Kiddie Grinder <Irresponsible Hate Anthem>
EXTD=
EXTT0=
EXTT1=
EXTT2=
EXTT3=
EXTT4=
EXTT5=
EXTT6=
EXTT7=
EXTT8=
EXTT9=
EXTT10=
EXTT11=
EXTT12=
EXTT13=
EXTT14=
EXTT15=
EXTT16=
EXTT17=
PLAYORDER=
